<svg xmlns="http://www.w3.org/2000/svg" xmlns:xlink="http://www.w3.org/1999/xlink" width="159" height="138.065" viewBox="0 0 159 138.065">
  <defs>
    <linearGradient id="linear-gradient" x1="0.065" y1="0.733" x2="0.81" y2="0.083" gradientUnits="objectBoundingBox">
      <stop offset="0.005" stop-color="#00bcff"/>
      <stop offset="0.5" stop-color="#88c89c"/>
      <stop offset="1" stop-color="#88c734"/>
    </linearGradient>
    <linearGradient id="linear-gradient-2" x1="-0.053" y1="0.5" x2="1.05" y2="0.5" gradientUnits="objectBoundingBox">
      <stop offset="0" stop-color="#1e1e1e"/>
      <stop offset="0.487" stop-color="#006262"/>
      <stop offset="1" stop-color="#1e1e1e"/>
    </linearGradient>
    <linearGradient id="linear-gradient-3" x1="-107.449" y1="0.502" x2="10.198" y2="0.502" xlink:href="#linear-gradient-2"/>
    <linearGradient id="linear-gradient-4" x1="-469.547" y1="0.522" x2="75.487" y2="0.522" gradientUnits="objectBoundingBox">
      <stop offset="0.005" stop-color="#00bcff"/>
      <stop offset="0.5" stop-color="#39b99d"/>
      <stop offset="1" stop-color="#88c734"/>
    </linearGradient>
    <linearGradient id="linear-gradient-5" x1="-161.163" y1="0.611" x2="982.577" y2="0.611" xlink:href="#linear-gradient-2"/>
    <linearGradient id="linear-gradient-6" x1="-12.523" y1="0.509" x2="69.09" y2="0.509" xlink:href="#linear-gradient-2"/>
    <linearGradient id="linear-gradient-7" x1="-13.473" y1="0.506" x2="54.533" y2="0.506" xlink:href="#linear-gradient-4"/>
    <linearGradient id="linear-gradient-8" x1="-58.368" y1="0.483" x2="197.326" y2="0.483" xlink:href="#linear-gradient-4"/>
    <linearGradient id="linear-gradient-9" x1="0.087" y1="0.909" x2="0.836" y2="0.052" xlink:href="#linear-gradient-4"/>
    <linearGradient id="linear-gradient-10" x1="-0.077" y1="0.5" x2="1.087" y2="0.5" xlink:href="#linear-gradient-2"/>
    <linearGradient id="linear-gradient-11" x1="-0.078" y1="0.5" x2="1.063" y2="0.5" xlink:href="#linear-gradient-2"/>
    <linearGradient id="linear-gradient-12" x1="-179.154" y1="0.493" x2="995.926" y2="0.493" xlink:href="#linear-gradient-2"/>
    <linearGradient id="linear-gradient-13" x1="-0.053" y1="0.856" x2="1.078" y2="0.289" xlink:href="#linear-gradient-4"/>
    <linearGradient id="linear-gradient-14" x1="-18.585" y1="0.499" x2="113.779" y2="0.499" xlink:href="#linear-gradient-4"/>
    <linearGradient id="linear-gradient-15" x1="0.123" y1="0.931" x2="0.829" y2="0.065" xlink:href="#linear-gradient-4"/>
  </defs>
  <g id="Grupo_92" data-name="Grupo 92" transform="translate(-4381 -729.935)">
    <g id="Grupo_91" data-name="Grupo 91">
      <g id="Grupo_90" data-name="Grupo 90">
        <path id="Trazado_1388" data-name="Trazado 1388" d="M4438.669,730.025c-31.337-2.052-57.669,31.494-57.669,52.747,0,19.953,11.025,26.317,11.025,26.317l-.008-.006c-.081-.08-3.518-3.385-3.518-11.609,0-6.734,3.112-13.791,8.491-20.375,8-9.79,21.03-18.523,36.339-23.541,15.636-5.124,16.65-10.708,16.65-13.976C4449.979,733.586,4444.712,730.42,4438.669,730.025Z" fill="url(#linear-gradient)"/>
        <path id="Trazado_1389" data-name="Trazado 1389" d="M4425.554,784.322c19.53-18.988,52.917-24.592,70.175-34.757,4.863-2.864,6.636-3.9,7.109-5.351,1.372-4.2-4.683-4.709-5.175-4.745h-.065c-15.625,0-37.889,11.639-60.46,30.431-16.421,13.671-22.907,26.629-34.358,26.613-9.511-.013-13.578-8.287-5.79-19.414-5.379,6.584-8.491,13.641-8.491,20.375,0,8.224,3.437,11.529,3.518,11.609a19.774,19.774,0,0,0,11.762,3.4,28.149,28.149,0,0,0,12.893-2.86,23.412,23.412,0,0,1-.532-5.035C4416.14,797.786,4419.111,790.587,4425.554,784.322Z" fill="url(#linear-gradient-2)"/>
        <path id="Trazado_1390" data-name="Trazado 1390" d="M4497.8,739.475c.365,0,.723.02,1.074.047C4498.524,739.495,4498.163,739.478,4497.8,739.475Z" fill="url(#linear-gradient-3)"/>
        <path id="Trazado_1391" data-name="Trazado 1391" d="M4497.628,739.469h.035c.046,0,.091.006.138.006C4497.741,739.475,4497.686,739.469,4497.628,739.469Z" fill="url(#linear-gradient-4)"/>
        <path id="Trazado_1392" data-name="Trazado 1392" d="M4435.278,822.055c-.034,0-.07,0-.1,0C4435.208,822.052,4435.243,822.055,4435.278,822.055Z" fill="url(#linear-gradient-5)"/>
        <path id="Trazado_1393" data-name="Trazado 1393" d="M4437.531,822.112c.221,0,.44-.007.661-.01-.469,0-.969,0-1.493-.01C4436.98,822.1,4437.245,822.112,4437.531,822.112Z" fill="url(#linear-gradient-6)"/>
        <path id="Trazado_1394" data-name="Trazado 1394" d="M4436.7,822.092c-.477-.006-.961-.013-1.421-.037C4435.77,822.075,4436.242,822.086,4436.7,822.092Z" fill="url(#linear-gradient-7)"/>
        <path id="Trazado_1395" data-name="Trazado 1395" d="M4438.57,822.1l-.037-.006c-.113,0-.226.006-.341.006Z" fill="url(#linear-gradient-8)"/>
        <path id="Trazado_1396" data-name="Trazado 1396" d="M4498.875,739.522c-.351-.027-.709-.044-1.074-.047-.047,0-.092-.006-.138-.006.492.036,6.547.548,5.175,4.745-.473,1.45-2.246,2.487-7.109,5.351-17.258,10.165-50.645,15.769-70.175,34.757-6.443,6.265-9.414,13.464-9.414,20.265a23.412,23.412,0,0,0,.532,5.035,14.9,14.9,0,0,0,2.314,5.48c4.051,5.657,10.964,6.741,16.187,6.95.035,0,.071,0,.1,0,.46.024.944.031,1.421.037.524.007,1.024.01,1.493.01.115,0,.228,0,.341-.006-.587-.1-9-1.627-11.757-8.065a8.872,8.872,0,0,1-.753-3.515c0-3.462,2.361-7.18,6.744-11.05,8.511-7.516,24.656-15.6,46-23.491,30.394-11.247,31.962-17.977,31.962-24.728C4510.726,745.5,4506.39,740.067,4498.875,739.522Z" fill="url(#linear-gradient-9)"/>
        <path id="Trazado_1397" data-name="Trazado 1397" d="M4463.432,805.132c12.289-9.686,39.573-15.712,52.332-21.535,21.837-9.963,14.221-15.723,11.3-15.989-.08,0-.148-.006-.23-.006-22.4,0-58.278,40.514-88.514,40.514-6.318,0-8.8-4.486-5.555-8.65-4.383,3.87-6.744,7.588-6.744,11.05a8.872,8.872,0,0,0,.753,3.515c2.76,6.438,11.17,7.964,11.757,8.065a55.207,55.207,0,0,0,14.288-2.239A31.022,31.022,0,0,1,4463.432,805.132Z" fill="url(#linear-gradient-10)"/>
        <path id="Trazado_1398" data-name="Trazado 1398" d="M4463.547,822.172c-3.776,2.933-5.987,6.2-5.987,10.049a9.28,9.28,0,0,0,3.672,7.13,24.221,24.221,0,0,0,8.44,1.324c9.085,0,20.636-2.667,31.168-6.588,1.96-4.719,5.312-9.418,10.842-14.05,13.53-11.333,15.073-13.172,15.073-15.051a2.823,2.823,0,0,0-1.851-2.587,7.3,7.3,0,0,0-4.591,1.1c-10.125,6.618-24.348,28.363-51.3,28.363C4462.93,831.859,4458.022,826.648,4463.547,822.172Z" fill="url(#linear-gradient-11)"/>
        <path id="Trazado_1399" data-name="Trazado 1399" d="M4464.287,821.617l-.067.05C4464.244,821.65,4464.264,821.633,4464.287,821.617Z" fill="url(#linear-gradient-12)"/>
        <path id="Trazado_1400" data-name="Trazado 1400" d="M4524.9,802.4v0a2.823,2.823,0,0,1,1.851,2.587c0,1.879-1.543,3.718-15.073,15.051-5.53,4.632-8.882,9.331-10.842,14.05a34.655,34.655,0,0,0-2.474,13.538c0,12.916,6.744,20.375,14.048,20.375a6.78,6.78,0,0,0,5.918-9.7c-3.487-7.206-6.061-12.773-6.061-18.892,0-14.439,18.383-20.81,18.95-29.084C4531.519,805.98,4528.62,802.366,4524.9,802.4Z" fill="url(#linear-gradient-13)"/>
        <path id="Trazado_1401" data-name="Trazado 1401" d="M4463.547,822.172c.22-.17.442-.339.673-.505l-.031.019C4463.959,821.849,4463.746,822.012,4463.547,822.172Z" fill="url(#linear-gradient-14)"/>
        <path id="Trazado_1402" data-name="Trazado 1402" d="M4526.983,767.6a.757.757,0,0,0,.083.006c2.919.266,10.535,6.026-11.3,15.989-12.759,5.823-40.043,11.849-52.332,21.535a31.022,31.022,0,0,0-10.611,14.725,18.913,18.913,0,0,0-.89,5.514c0,6.129,3.169,11.971,9.39,14.033-.029-.013-.06-.036-.089-.053a9.28,9.28,0,0,1-3.672-7.13c0-3.847,2.211-7.116,5.987-10.049.2-.16.412-.323.642-.486l.031-.019.067-.05c12.618-9.179,40.612-15.118,63.316-25.623,12.246-5.666,12.4-13.874,12.4-16.052C4540,771.862,4535.991,767.256,4526.983,767.6Z" fill="url(#linear-gradient-15)"/>
      </g>
    </g>
  </g>
</svg>
