<svg xmlns="http://www.w3.org/2000/svg" xmlns:xlink="http://www.w3.org/1999/xlink" width="158.405" height="137.546" viewBox="0 0 158.405 137.546">
  <defs>
    <linearGradient id="linear-gradient" x1="-0.053" y1="0.5" x2="1.05" y2="0.5" gradientUnits="objectBoundingBox">
      <stop offset="0" stop-color="#babcbe"/>
      <stop offset="0.487" stop-color="#fff"/>
      <stop offset="1" stop-color="#babcbe"/>
    </linearGradient>
    <linearGradient id="linear-gradient-2" x1="-107.453" y1="0.503" x2="10.2" y2="0.503" gradientUnits="objectBoundingBox">
      <stop offset="0" stop-color="#1e1e1e"/>
      <stop offset="0.487" stop-color="#006262"/>
      <stop offset="1" stop-color="#1e1e1e"/>
    </linearGradient>
    <linearGradient id="linear-gradient-3" x1="-471.134" y1="0.499" x2="75.742" y2="0.499" gradientUnits="objectBoundingBox">
      <stop offset="0.005" stop-color="#00bcff"/>
      <stop offset="0.5" stop-color="#39b99d"/>
      <stop offset="1" stop-color="#88c734"/>
    </linearGradient>
    <linearGradient id="linear-gradient-4" x1="-162.413" y1="0.444" x2="990.193" y2="0.444" xlink:href="#linear-gradient-2"/>
    <linearGradient id="linear-gradient-5" x1="-12.517" y1="0.488" x2="69.056" y2="0.488" xlink:href="#linear-gradient-2"/>
    <linearGradient id="linear-gradient-6" x1="-13.47" y1="0.495" x2="54.52" y2="0.495" xlink:href="#linear-gradient-3"/>
    <linearGradient id="linear-gradient-7" x1="-58.374" y1="0.493" x2="197.339" y2="0.493" xlink:href="#linear-gradient-3"/>
    <linearGradient id="linear-gradient-8" x1="-0.077" y1="0.5" x2="1.087" y2="0.5" xlink:href="#linear-gradient"/>
    <linearGradient id="linear-gradient-9" x1="-0.078" y1="0.5" x2="1.063" y2="0.5" xlink:href="#linear-gradient"/>
    <linearGradient id="linear-gradient-10" x1="-180.533" y1="0.499" x2="1003.569" y2="0.499" xlink:href="#linear-gradient-2"/>
    <linearGradient id="linear-gradient-11" x1="-18.586" y1="0.499" x2="113.784" y2="0.499" xlink:href="#linear-gradient-3"/>
  </defs>
  <g id="Grupo_95" data-name="Grupo 95" transform="translate(-4618.595 -733.179)">
    <g id="Grupo_94" data-name="Grupo 94">
      <path id="Trazado_1403" data-name="Trazado 1403" d="M4676.049,733.269c-31.22-2.045-57.454,31.376-57.454,52.551,0,19.877,10.985,26.216,10.985,26.216l-.008-.007c-.082-.077-3.506-3.372-3.506-11.565,0-6.707,3.1-13.74,8.46-20.3,7.973-9.755,20.95-18.455,36.2-23.454,15.577-5.105,16.588-10.669,16.588-13.926C4687.317,736.814,4682.068,733.662,4676.049,733.269Z" fill="#fff"/>
      <path id="Trazado_1404" data-name="Trazado 1404" d="M4662.983,787.361c19.457-18.918,52.72-24.5,69.911-34.627,4.846-2.853,6.612-3.886,7.085-5.33,1.366-4.181-4.666-4.692-5.158-4.727l-.065,0c-15.566,0-37.745,11.6-60.233,30.317-16.359,13.621-22.822,26.533-34.229,26.515-9.476-.014-13.527-8.257-5.768-19.34-5.359,6.557-8.46,13.59-8.46,20.3,0,8.193,3.424,11.488,3.506,11.565a19.71,19.71,0,0,0,11.718,3.386,28.066,28.066,0,0,0,12.843-2.847,23.382,23.382,0,0,1-.529-5.02C4653.6,800.776,4656.564,793.6,4662.983,787.361Z" fill="url(#linear-gradient)"/>
      <path id="Trazado_1405" data-name="Trazado 1405" d="M4734.958,742.682c.366,0,.721.021,1.071.047C4735.679,742.7,4735.321,742.687,4734.958,742.682Z" fill="url(#linear-gradient-2)"/>
      <path id="Trazado_1406" data-name="Trazado 1406" d="M4734.786,742.675l.035,0c.047,0,.091,0,.137.005C4734.9,742.681,4734.844,742.675,4734.786,742.675Z" fill="url(#linear-gradient-3)"/>
      <path id="Trazado_1407" data-name="Trazado 1407" d="M4672.67,824.954l-.1,0Z" fill="url(#linear-gradient-4)"/>
      <path id="Trazado_1408" data-name="Trazado 1408" d="M4674.915,825.011c.22,0,.438-.008.658-.011-.467,0-.964,0-1.487-.011C4674.365,824.994,4674.63,825.011,4674.915,825.011Z" fill="url(#linear-gradient-5)"/>
      <path id="Trazado_1409" data-name="Trazado 1409" d="M4674.086,824.989c-.475-.008-.957-.012-1.416-.035C4673.161,824.973,4673.632,824.984,4674.086,824.989Z" fill="url(#linear-gradient-6)"/>
      <path id="Trazado_1410" data-name="Trazado 1410" d="M4675.949,825l-.035-.007-.341.007Z" fill="url(#linear-gradient-7)"/>
      <path id="Trazado_1411" data-name="Trazado 1411" d="M4736.029,742.729c-.35-.026-.7-.044-1.071-.047-.046,0-.09-.005-.137-.005.492.035,6.524.546,5.158,4.727-.473,1.444-2.239,2.477-7.085,5.33-17.191,10.128-50.454,15.709-69.911,34.627-6.419,6.241-9.379,13.415-9.379,20.187a23.382,23.382,0,0,0,.529,5.02,14.852,14.852,0,0,0,2.307,5.458c4.034,5.636,10.923,6.716,16.125,6.924l.1,0c.459.023.941.027,1.416.035.523.008,1.02.009,1.487.011l.341-.007c-.585-.1-8.963-1.62-11.714-8.034a8.841,8.841,0,0,1-.75-3.5c0-3.45,2.353-7.153,6.718-11.006,8.481-7.488,24.565-15.542,45.826-23.407,30.281-11.2,31.843-17.909,31.843-24.632C4747.837,748.688,4743.516,743.273,4736.029,742.729Z" fill="#fff"/>
      <path id="Trazado_1412" data-name="Trazado 1412" d="M4700.72,808.095c12.243-9.65,39.423-15.654,52.135-21.454,21.755-9.926,14.17-15.666,11.259-15.93-.078,0-.148-.006-.228-.006-22.311,0-58.059,40.36-88.184,40.36-6.294,0-8.762-4.469-5.534-8.614-4.365,3.853-6.718,7.556-6.718,11.006a8.841,8.841,0,0,0,.75,3.5c2.751,6.414,11.129,7.935,11.714,8.034a55.053,55.053,0,0,0,14.234-2.228A30.87,30.87,0,0,1,4700.72,808.095Z" fill="url(#linear-gradient-8)"/>
      <path id="Trazado_1413" data-name="Trazado 1413" d="M4700.834,825.071c-3.762,2.921-5.965,6.177-5.965,10.012a9.238,9.238,0,0,0,3.659,7.1,24.1,24.1,0,0,0,8.409,1.318c9.051,0,20.557-2.654,31.05-6.561,1.953-4.7,5.292-9.383,10.8-14,13.478-11.29,15.016-13.122,15.016-14.994a2.819,2.819,0,0,0-1.845-2.58,7.3,7.3,0,0,0-4.573,1.093c-10.088,6.594-24.258,28.258-51.113,28.258C4700.219,834.72,4695.329,829.528,4700.834,825.071Z" fill="url(#linear-gradient-9)"/>
      <path id="Trazado_1414" data-name="Trazado 1414" d="M4701.571,824.515c-.022.017-.045.033-.066.05C4701.527,824.548,4701.547,824.532,4701.571,824.515Z" fill="url(#linear-gradient-10)"/>
      <path id="Trazado_1415" data-name="Trazado 1415" d="M4761.96,805.368h0a2.819,2.819,0,0,1,1.845,2.58c0,1.872-1.538,3.7-15.016,14.994-5.511,4.615-8.85,9.3-10.8,14a34.52,34.52,0,0,0-2.464,13.488c0,12.866,6.719,20.3,14,20.3a6.752,6.752,0,0,0,5.9-9.666c-3.474-7.179-6.037-12.725-6.037-18.82,0-14.388,18.313-20.736,18.878-28.978C4768.551,808.939,4765.663,805.338,4761.96,805.368Z" fill="#fff"/>
      <path id="Trazado_1416" data-name="Trazado 1416" d="M4700.834,825.071c.218-.17.44-.339.671-.506-.011.008-.022.014-.032.022C4701.244,824.747,4701.033,824.909,4700.834,825.071Z" fill="url(#linear-gradient-11)"/>
      <path id="Trazado_1417" data-name="Trazado 1417" d="M4764.032,770.705l.082.006c2.911.264,10.5,6-11.259,15.93-12.712,5.8-39.892,11.8-52.135,21.454a30.87,30.87,0,0,0-10.572,14.67,18.775,18.775,0,0,0-.887,5.491c0,6.106,3.157,11.928,9.355,13.983-.028-.015-.06-.038-.088-.055a9.238,9.238,0,0,1-3.659-7.1c0-3.835,2.2-7.091,5.965-10.012.2-.162.41-.324.639-.484.01-.008.021-.014.032-.022s.044-.033.066-.05c12.57-9.143,40.459-15.06,63.078-25.527,12.2-5.645,12.351-13.821,12.351-15.99C4777,774.946,4773.006,770.358,4764.032,770.705Z" fill="#fff"/>
    </g>
  </g>
</svg>
